<svg xmlns="http://www.w3.org/2000/svg" width="1em" height="1em" viewBox="0 0 24 24"><path fill="currentColor" fill-opacity="0.25" d="M5 14.059c0-1.01 0-1.514.222-1.945c.221-.43.632-.724 1.453-1.31l4.163-2.974c.56-.4.842-.601 1.162-.601c.32 0 .601.2 1.162.601l4.163 2.973c.821.587 1.232.88 1.453 1.311c.222.43.222.935.222 1.944V19c0 .943 0 1.414-.293 1.707C18.414 21 17.943 21 17 21H7c-.943 0-1.414 0-1.707-.293C5 20.414 5 19.943 5 19z"/><path fill="currentColor" d="M3 12.387c0 .266 0 .4.084.441c.084.041.19-.04.4-.205l7.288-5.668c.59-.459.885-.688 1.228-.688c.343 0 .638.23 1.228.688l7.288 5.668c.21.164.316.246.4.205c.084-.041.084-.175.084-.441v-.409c0-.48 0-.72-.102-.928c-.101-.208-.291-.356-.67-.65l-7-5.445c-.59-.459-.885-.688-1.228-.688c-.343 0-.638.23-1.228.688l-7 5.445c-.379.294-.569.442-.67.65c-.102.208-.102.448-.102.928zM12.5 15h-1a2 2 0 0 0-2 2v3.85c0 .083.067.15.15.15h4.7a.15.15 0 0 0 .15-.15V17a2 2 0 0 0-2-2"/><rect width="2" height="4" x="16" y="5" fill="currentColor" rx=".5"/></svg>