<svg height="128" width="360" xmlns="http://www.w3.org/2000/svg"><linearGradient id="prefix__a" x1="100%" x2="50%" y1="5.663%" y2="50%"><stop offset="0" stop-color="#007b55"/><stop offset="1" stop-color="#00ab55"/></linearGradient><linearGradient id="prefix__b" x1="50%" x2="50%" y1="0%" y2="100%"><stop offset="0" stop-color="#5be584"/><stop offset="1" stop-color="#00ab55"/></linearGradient><g fill="none" fill-rule="evenodd"><path d="M23.202 20.777l11.6 5.995L46 32.56c-6.518 12.135-10.673 19.316-12.467 21.545-2.69 3.342-5.624 5.873-9.233 7.333-7.586 3.566-17.017 3.732-24.3-.676z" fill="url(#prefix__a)" transform="translate(3.5 32)"/><path d="M107.578 25.432C96.01 5.192 84.053-13.876 70.317 14.096 68.437 17.69 67.068 24.68 64 24.68v-.036c-3.068 0-4.437-6.988-6.316-10.584C43.947-13.91 31.99 5.157 20.422 25.396c-.87 1.526-1.706 2.983-2.422 4.249 26.51-16.782 24.278 33.917 46 34.32V64c21.723-.403 19.49-51.101 46-34.32-.715-1.265-1.551-2.722-2.422-4.248M109 64c6.627 0 12-5.373 12-12s-5.373-12-12-12-12 5.373-12 12 5.373 12 12 12" fill="url(#prefix__b)" transform="translate(3.5 32)"/><path d="M146.031 45.215c3.522 0 6.072-2.39 6.072-5.628S149.553 34 146.031 34c-3.44 0-6.031 2.348-6.031 5.587s2.59 5.628 6.031 5.628zm0 48.623c3.32 0 5.343-1.984 5.343-5.87V55.984c0-3.887-2.023-5.911-5.302-5.911-3.32 0-5.343 2.024-5.343 5.91v31.985c0 3.846 2.024 5.87 5.302 5.87zm49.06 0c3.4 0 5.303-2.065 5.303-5.83v-23.36c0-9.433-5.181-14.859-14.33-14.859-6.314 0-11.131 3.158-12.79 8.26h-.527v-2.632c-.121-3.441-1.983-5.344-5.181-5.344-3.238 0-5.262 2.186-5.262 5.708v32.187c0 3.765 1.943 5.87 5.343 5.87s5.343-2.105 5.343-5.87V69.547c0-6.68 3.481-10.77 9.027-10.77 4.938 0 7.73 3.158 7.73 8.786v20.405c0 3.765 1.903 5.87 5.344 5.87zm21.21-48.623c3.522 0 6.073-2.39 6.073-5.628S219.824 34 216.302 34c-3.44 0-6.032 2.348-6.032 5.587s2.591 5.628 6.032 5.628zm0 48.623c3.32 0 5.344-1.984 5.344-5.87V55.984c0-3.887-2.024-5.911-5.303-5.911-3.319 0-5.343 2.024-5.343 5.91v31.985c0 3.846 2.024 5.87 5.303 5.87zm72.7 0c3.4 0 5.343-2.065 5.343-5.87V63.433c0-8.502-5.181-13.644-13.844-13.644-6.193 0-11.05 3.118-12.912 8.098h-.486c-1.417-5.02-5.788-8.098-11.82-8.098-5.828 0-10.322 2.996-11.738 7.814h-.527V55.58c-.161-3.441-2.064-5.506-5.18-5.506-3.239 0-5.263 2.186-5.263 5.749v32.146c0 3.805 1.943 5.87 5.343 5.87s5.343-2.065 5.343-5.87v-20.77c0-5.222 3.036-8.583 7.57-8.583 4.614 0 7.488 3.118 7.488 8.219v21.134c0 3.805 1.822 5.87 5.141 5.87 3.36 0 5.181-2.065 5.181-5.87v-20.73c0-5.181 3.117-8.623 7.691-8.623 4.615 0 7.367 2.915 7.367 8.017v21.336c0 3.805 1.903 5.87 5.303 5.87zm27.566.162c5.262 0 9.512-2.186 11.698-6.032h.526v1.498c.324 2.793 2.186 4.372 5.02 4.372 3.319 0 5.18-2.065 5.18-5.708V64.648c0-9.514-6.314-14.859-17.567-14.859-4.695 0-8.298.81-11.01 2.227-3.765 1.903-5.505 4.454-5.505 6.964 0 2.186 1.457 3.765 3.805 3.765 1.74 0 2.874-.445 4.088-1.417 2.388-2.146 4.696-3.36 7.934-3.36 4.898 0 7.61 2.267 7.61 6.599v3.522h-10.2c-9.756 0-15.625 4.899-15.625 12.834 0 7.814 5.667 13.077 14.046 13.077zm3.562-7.692c-4.17 0-7.003-2.47-7.003-6.033 0-3.522 2.59-5.627 6.962-5.627h8.258V79.1c0 4.049-3.603 7.207-8.217 7.207zm34.528 7.53c3.279 0 5.343-1.984 5.343-5.87V40.842c0-3.887-2.064-5.91-5.343-5.91-3.32 0-5.343 2.023-5.343 5.91v47.126c0 3.886 2.024 5.87 5.343 5.87z" fill="#212b36" fill-rule="nonzero"/></g></svg>