<svg width="180" height="180" viewBox="0 0 180 180" fill="none" xmlns="http://www.w3.org/2000/svg">
<path d="M90.5415 180L88.1391 178.958C58.8017 166.33 38.5632 147.197 28.0189 122.111C19.4728 101.766 18.75 81.9957 18.75 65.0311V0H162.312V65.0311C162.312 81.9744 161.589 101.766 153.043 122.111C142.498 147.218 122.26 166.351 92.9225 178.958L90.5201 180H90.5415Z" fill="#151D24"/>
<path d="M90.5415 180L88.1391 178.958C58.8017 166.33 38.5632 147.197 28.0189 122.111C19.4728 101.766 18.75 81.9957 18.75 65.0311V0H162.312V65.0311C162.312 81.9744 161.589 101.766 153.043 122.111C142.498 147.218 122.26 166.351 92.9225 178.958L90.5201 180H90.5415ZM20.8971 2.1259V65.0311C20.8971 81.7618 21.5987 101.299 29.996 121.282C40.3278 145.858 60.1624 164.608 88.9894 177.003L90.5626 177.682L92.1359 177.003C120.963 164.608 140.797 145.858 151.129 121.282C159.527 101.299 160.228 81.7832 160.228 65.0311V2.1259H20.8971Z" fill="#151D24"/>
<path d="M23.3627 4.40283V64.5232C23.3627 94.1793 24.9359 146.923 90.5622 175.09C156.167 146.923 157.74 94.2005 157.74 64.5232V4.40283H23.3627ZM81.6334 8.31447H151.66L79.7839 50.4072L81.6122 8.31447H81.6334ZM27.0617 8.31447H74.7881L65.0727 49.7694L27.0405 24.8326V8.31447H27.0617ZM27.0617 64.5018V33.6338L57.8873 61.9933L27.083 68.3072C27.083 67.0316 27.0617 65.7561 27.0617 64.5018ZM27.2956 77.2996L55.4637 74.6637L32.9505 111.271C29.1451 99.6003 27.7846 88.0779 27.3169 77.2996H27.2956ZM90.5622 170.839C64.3925 159.295 46.216 142.331 36.4582 120.392L68.8993 79.7657L111.247 159.444C105.018 163.696 98.1304 167.501 90.5409 170.86L90.5622 170.839ZM145.325 118.882C139.096 133.636 129.105 146.157 115.52 156.383L84.2909 75.3013L153.51 82.1893C152.702 93.9029 150.597 106.403 145.304 118.903L145.325 118.882ZM154.041 64.5018C154.041 67.9032 153.999 71.3898 153.893 74.9825L84.312 61.9933L154.041 11.4821V64.5018Z" fill="white"/>
</svg>
